<svg width="16" height="16" viewBox="0 0 16 16" fill="none" xmlns="http://www.w3.org/2000/svg">
<path d="M13.8643 5.1975C14.5582 6.64863 14.6899 8.30533 14.2341 9.84786C13.7782 11.3904 12.7672 12.7094 11.3961 13.5503C10.0249 14.3912 8.39088 14.6944 6.80933 14.4014C5.22777 14.1084 3.81081 13.24 2.83192 11.9637C1.85303 10.6874 1.38159 9.09372 1.50861 7.49027C1.63563 5.88683 2.35209 4.38727 3.51971 3.28101C4.68734 2.17474 6.22336 1.5402 7.83132 1.49985C9.43928 1.4595 11.0052 2.0162 12.2268 3.0625L13.6437 1.645C13.7375 1.55118 13.8648 1.49848 13.9975 1.49848C14.1302 1.49848 14.2574 1.55118 14.3512 1.645C14.445 1.73882 14.4977 1.86607 14.4977 1.99875C14.4977 2.13144 14.445 2.25868 14.3512 2.3525L8.35122 8.3525C8.2574 8.44633 8.13015 8.49903 7.99747 8.49903C7.86479 8.49903 7.73754 8.44633 7.64372 8.3525C7.5499 8.25868 7.49719 8.13144 7.49719 7.99875C7.49719 7.86607 7.5499 7.73882 7.64372 7.645L9.37622 5.9125C8.90669 5.60198 8.3461 5.459 7.7852 5.50672C7.2243 5.55444 6.69592 5.79007 6.2856 6.17546C5.87528 6.56084 5.60704 7.07343 5.52429 7.63024C5.44155 8.18705 5.54914 8.7555 5.82967 9.24355C6.11019 9.7316 6.54722 10.1107 7.07 10.3194C7.59279 10.5282 8.17073 10.5544 8.71026 10.3939C9.2498 10.2333 9.71936 9.89531 10.0429 9.43466C10.3665 8.97401 10.5251 8.41765 10.4931 7.85563C10.4894 7.78997 10.4987 7.72422 10.5204 7.66215C10.5421 7.60007 10.5758 7.54288 10.6197 7.49384C10.6635 7.4448 10.7165 7.40487 10.7758 7.37633C10.835 7.34779 10.8993 7.3312 10.965 7.3275C11.0976 7.32005 11.2277 7.36557 11.3268 7.45406C11.3758 7.49788 11.4157 7.55093 11.4443 7.61018C11.4728 7.66943 11.4894 7.73372 11.4931 7.79938C11.5387 8.59487 11.3115 9.3821 10.849 10.031C10.3866 10.6798 9.71658 11.1515 8.94976 11.368C8.18294 11.5844 7.36521 11.5328 6.63171 11.2216C5.89822 10.9103 5.29287 10.3581 4.91573 9.65627C4.53858 8.95439 4.41221 8.14483 4.55751 7.36139C4.7028 6.57796 5.11106 5.86755 5.7148 5.34758C6.31855 4.82762 7.08164 4.52921 7.87796 4.5017C8.67428 4.47418 9.45615 4.7192 10.0943 5.19625L11.5162 3.77438C10.4742 2.90925 9.14933 2.45961 7.796 2.5118C6.44268 2.564 5.15635 3.11436 4.18409 4.05717C3.21182 4.99999 2.62216 6.26878 2.52837 7.61985C2.43458 8.97093 2.84327 10.309 3.67594 11.3771C4.50862 12.4453 5.70656 13.1681 7.03969 13.4067C8.37282 13.6454 9.74714 13.3832 10.8987 12.6703C12.0502 11.9575 12.8978 10.8443 13.2786 9.54459C13.6594 8.2449 13.5466 6.85034 12.9618 5.62875C12.9047 5.50908 12.8974 5.37158 12.9415 5.24652C12.9857 5.12145 13.0778 5.01907 13.1975 4.96188C13.3171 4.90469 13.4546 4.89739 13.5797 4.94158C13.7048 4.98577 13.8072 5.07783 13.8643 5.1975Z" fill="white"/>
</svg>
