<svg width="14" height="14" viewBox="0 0 14 14" fill="none" xmlns="http://www.w3.org/2000/svg">
<path d="M1.56685 6.22655C1.35327 6.01297 1.35327 5.66669 1.56685 5.45314L4.76878 2.25121C4.98236 2.03768 5.32861 2.03763 5.54217 2.25121L7.55543 4.26448L10.7262 1.09375H9.32135C9.01931 1.09375 8.77447 0.848914 8.77447 0.546875C8.77447 0.244836 9.01931 8.04037e-08 9.32135 8.04037e-08H12.0462C12.3531 -0.000163982 12.5933 0.25077 12.5933 0.546875V3.27195C12.5933 3.57399 12.3485 3.81883 12.0464 3.81883C11.7444 3.81883 11.4996 3.57399 11.4996 3.27195V1.86717L7.94213 5.42459C7.72855 5.63817 7.38229 5.63817 7.16874 5.42459L5.15547 3.41132L2.34024 6.22655C2.12669 6.44014 1.78038 6.44008 1.56685 6.22655ZM3.90712 10.2266V13.4531C3.90712 13.7552 3.66229 14 3.36025 14H0.546875C0.244836 14 0 13.7552 0 13.4531V10.2266C0 9.92452 0.244836 9.67969 0.546875 9.67969H3.36025C3.66229 9.67969 3.90712 9.92452 3.90712 10.2266ZM2.81337 10.7734H1.09375V12.9062H2.81337V10.7734ZM8.95355 8.14641V13.4531C8.95355 13.7552 8.70871 14 8.40667 14H5.59333C5.29129 14 5.04645 13.7552 5.04645 13.4531V8.14641C5.04645 7.84437 5.29129 7.59954 5.59333 7.59954H8.4067C8.70871 7.59954 8.95355 7.84437 8.95355 8.14641ZM7.8598 8.69329H6.14018V12.9062H7.8598V8.69329ZM14 6.06629V13.4531C14 13.7552 13.7552 14 13.4531 14H10.6398C10.3377 14 10.0929 13.7552 10.0929 13.4531V6.06629C10.0929 5.76425 10.3377 5.51942 10.6398 5.51942H13.4531C13.7552 5.51942 14 5.76425 14 6.06629ZM12.9062 6.61317H11.1866V12.9062H12.9062V6.61317Z" fill="#364153"/>
</svg>
